<svg width="28" height="22" viewBox="0 0 28 22" fill="none" xmlns="http://www.w3.org/2000/svg">
<path d="M9.95 9.35C10.9833 9.85 11.7833 10.5833 12.35 11.55C12.9167 12.4833 13.2 13.6 13.2 14.9C13.2 16.8333 12.5833 18.3833 11.35 19.55C10.1167 20.7167 8.53333 21.3 6.6 21.3C4.66667 21.3 3.08333 20.7167 1.85 19.55C0.616667 18.3833 7.07805e-08 16.8333 7.07805e-08 14.9C7.07805e-08 14.0333 0.116667 13.1667 0.35 12.3C0.583333 11.4333 1.11667 10.1167 1.95 8.35L5.45 0.899998H12.45L9.95 9.35ZM24.45 9.35C25.4833 9.85 26.2833 10.5833 26.85 11.55C27.4167 12.4833 27.7 13.6 27.7 14.9C27.7 16.8333 27.0833 18.3833 25.85 19.55C24.6167 20.7167 23.0333 21.3 21.1 21.3C19.1667 21.3 17.5833 20.7167 16.35 19.55C15.1167 18.3833 14.5 16.8333 14.5 14.9C14.5 14.0333 14.6167 13.1667 14.85 12.3C15.0833 11.4333 15.6167 10.1167 16.45 8.35L19.95 0.899998H26.95L24.45 9.35Z" fill="#9F9F9F"/>
</svg>
